<mxfile host="app.diagrams.net" agent="Mozilla/5.0 (Windows NT 10.0; Win64; x64) AppleWebKit/537.36 (KHTML, like Gecko) Chrome/131.0.0.0 Safari/537.36" version="25.0.3">
  <diagram name="Page-1" id="JupGgn7w0ofj1Ipl5p3e">
    <mxGraphModel dx="1050" dy="522" grid="1" gridSize="10" guides="1" tooltips="1" connect="1" arrows="1" fold="1" page="1" pageScale="1" pageWidth="827" pageHeight="1169" math="0" shadow="0">
      <root>
        <mxCell id="0" />
        <mxCell id="1" parent="0" />
        <mxCell id="ISeR_jZcZGWScrFBJxX0-3" value="" style="edgeStyle=orthogonalEdgeStyle;rounded=0;orthogonalLoop=1;jettySize=auto;html=1;" parent="1" source="ISeR_jZcZGWScrFBJxX0-1" target="ISeR_jZcZGWScrFBJxX0-2" edge="1">
          <mxGeometry relative="1" as="geometry" />
        </mxCell>
        <mxCell id="ISeR_jZcZGWScrFBJxX0-1" value="start" style="ellipse;whiteSpace=wrap;html=1;aspect=fixed;" parent="1" vertex="1">
          <mxGeometry x="360" y="50" width="120" height="60" as="geometry" />
        </mxCell>
        <mxCell id="ISeR_jZcZGWScrFBJxX0-6" value="" style="edgeStyle=orthogonalEdgeStyle;rounded=0;orthogonalLoop=1;jettySize=auto;html=1;" parent="1" source="ISeR_jZcZGWScrFBJxX0-2" target="ISeR_jZcZGWScrFBJxX0-4" edge="1">
          <mxGeometry relative="1" as="geometry" />
        </mxCell>
        <mxCell id="ISeR_jZcZGWScrFBJxX0-2" value="รับค่า n" style="shape=parallelogram;perimeter=parallelogramPerimeter;whiteSpace=wrap;html=1;fixedSize=1;" parent="1" vertex="1">
          <mxGeometry x="345" y="140" width="150" height="60" as="geometry" />
        </mxCell>
        <mxCell id="ISeR_jZcZGWScrFBJxX0-9" value="" style="edgeStyle=orthogonalEdgeStyle;rounded=0;orthogonalLoop=1;jettySize=auto;html=1;" parent="1" source="ISeR_jZcZGWScrFBJxX0-4" target="ISeR_jZcZGWScrFBJxX0-8" edge="1">
          <mxGeometry relative="1" as="geometry" />
        </mxCell>
        <mxCell id="ISeR_jZcZGWScrFBJxX0-19" value="" style="edgeStyle=orthogonalEdgeStyle;rounded=0;orthogonalLoop=1;jettySize=auto;html=1;" parent="1" source="ISeR_jZcZGWScrFBJxX0-4" target="ISeR_jZcZGWScrFBJxX0-18" edge="1">
          <mxGeometry relative="1" as="geometry" />
        </mxCell>
        <mxCell id="ISeR_jZcZGWScrFBJxX0-4" value="n % 2 == 0" style="rhombus;whiteSpace=wrap;html=1;" parent="1" vertex="1">
          <mxGeometry x="310" y="250" width="220" height="80" as="geometry" />
        </mxCell>
        <mxCell id="ISeR_jZcZGWScrFBJxX0-12" value="" style="edgeStyle=orthogonalEdgeStyle;rounded=0;orthogonalLoop=1;jettySize=auto;html=1;" parent="1" source="ISeR_jZcZGWScrFBJxX0-8" target="ISeR_jZcZGWScrFBJxX0-10" edge="1">
          <mxGeometry relative="1" as="geometry" />
        </mxCell>
        <mxCell id="ISeR_jZcZGWScrFBJxX0-8" value="" style="ellipse;whiteSpace=wrap;html=1;aspect=fixed;" parent="1" vertex="1">
          <mxGeometry x="590" y="275" width="30" height="30" as="geometry" />
        </mxCell>
        <mxCell id="ISeR_jZcZGWScrFBJxX0-14" value="" style="edgeStyle=orthogonalEdgeStyle;rounded=0;orthogonalLoop=1;jettySize=auto;html=1;" parent="1" source="ISeR_jZcZGWScrFBJxX0-10" target="ISeR_jZcZGWScrFBJxX0-13" edge="1">
          <mxGeometry relative="1" as="geometry" />
        </mxCell>
        <mxCell id="2k1BfcRlF_cY40iNdsTP-3" style="edgeStyle=orthogonalEdgeStyle;rounded=0;orthogonalLoop=1;jettySize=auto;html=1;exitX=0;exitY=0.5;exitDx=0;exitDy=0;entryX=1;entryY=0;entryDx=0;entryDy=0;" edge="1" parent="1" source="ISeR_jZcZGWScrFBJxX0-10" target="ISeR_jZcZGWScrFBJxX0-21">
          <mxGeometry relative="1" as="geometry" />
        </mxCell>
        <mxCell id="ISeR_jZcZGWScrFBJxX0-10" value="แสดง Hello World ครบ n รอบ" style="rhombus;whiteSpace=wrap;html=1;" parent="1" vertex="1">
          <mxGeometry x="510" y="360" width="190" height="80" as="geometry" />
        </mxCell>
        <mxCell id="2k1BfcRlF_cY40iNdsTP-2" style="edgeStyle=orthogonalEdgeStyle;rounded=0;orthogonalLoop=1;jettySize=auto;html=1;exitX=1;exitY=0.5;exitDx=0;exitDy=0;entryX=1;entryY=0.5;entryDx=0;entryDy=0;" edge="1" parent="1" source="ISeR_jZcZGWScrFBJxX0-13" target="ISeR_jZcZGWScrFBJxX0-8">
          <mxGeometry relative="1" as="geometry" />
        </mxCell>
        <mxCell id="ISeR_jZcZGWScrFBJxX0-13" value="แสดง&amp;nbsp;(รอบที่) Hello World" style="rounded=0;whiteSpace=wrap;html=1;" parent="1" vertex="1">
          <mxGeometry x="505" y="490" width="200" height="60" as="geometry" />
        </mxCell>
        <mxCell id="ISeR_jZcZGWScrFBJxX0-15" value="" style="edgeStyle=orthogonalEdgeStyle;rounded=0;orthogonalLoop=1;jettySize=auto;html=1;" parent="1" source="ISeR_jZcZGWScrFBJxX0-16" target="ISeR_jZcZGWScrFBJxX0-17" edge="1">
          <mxGeometry relative="1" as="geometry" />
        </mxCell>
        <mxCell id="2k1BfcRlF_cY40iNdsTP-4" style="edgeStyle=orthogonalEdgeStyle;rounded=0;orthogonalLoop=1;jettySize=auto;html=1;exitX=1;exitY=0.5;exitDx=0;exitDy=0;entryX=0;entryY=0;entryDx=0;entryDy=0;" edge="1" parent="1" source="ISeR_jZcZGWScrFBJxX0-16" target="ISeR_jZcZGWScrFBJxX0-21">
          <mxGeometry relative="1" as="geometry" />
        </mxCell>
        <mxCell id="ISeR_jZcZGWScrFBJxX0-16" value="แสดง Hello World ครบ n รอบ" style="rhombus;whiteSpace=wrap;html=1;" parent="1" vertex="1">
          <mxGeometry x="115" y="360" width="190" height="80" as="geometry" />
        </mxCell>
        <mxCell id="2k1BfcRlF_cY40iNdsTP-1" style="edgeStyle=orthogonalEdgeStyle;rounded=0;orthogonalLoop=1;jettySize=auto;html=1;exitX=0;exitY=0.5;exitDx=0;exitDy=0;entryX=0;entryY=0.5;entryDx=0;entryDy=0;" edge="1" parent="1" source="ISeR_jZcZGWScrFBJxX0-17" target="ISeR_jZcZGWScrFBJxX0-18">
          <mxGeometry relative="1" as="geometry" />
        </mxCell>
        <mxCell id="ISeR_jZcZGWScrFBJxX0-17" value="แสดง [รอบที่] Hello World" style="rounded=0;whiteSpace=wrap;html=1;" parent="1" vertex="1">
          <mxGeometry x="110" y="490" width="200" height="60" as="geometry" />
        </mxCell>
        <mxCell id="ISeR_jZcZGWScrFBJxX0-20" value="" style="edgeStyle=orthogonalEdgeStyle;rounded=0;orthogonalLoop=1;jettySize=auto;html=1;" parent="1" source="ISeR_jZcZGWScrFBJxX0-18" target="ISeR_jZcZGWScrFBJxX0-16" edge="1">
          <mxGeometry relative="1" as="geometry" />
        </mxCell>
        <mxCell id="ISeR_jZcZGWScrFBJxX0-18" value="" style="ellipse;whiteSpace=wrap;html=1;aspect=fixed;" parent="1" vertex="1">
          <mxGeometry x="195" y="275" width="30" height="30" as="geometry" />
        </mxCell>
        <mxCell id="ISeR_jZcZGWScrFBJxX0-25" value="" style="edgeStyle=orthogonalEdgeStyle;rounded=0;orthogonalLoop=1;jettySize=auto;html=1;" parent="1" source="ISeR_jZcZGWScrFBJxX0-21" target="ISeR_jZcZGWScrFBJxX0-24" edge="1">
          <mxGeometry relative="1" as="geometry" />
        </mxCell>
        <mxCell id="ISeR_jZcZGWScrFBJxX0-21" value="" style="ellipse;whiteSpace=wrap;html=1;aspect=fixed;" parent="1" vertex="1">
          <mxGeometry x="384" y="630" width="30" height="30" as="geometry" />
        </mxCell>
        <mxCell id="ISeR_jZcZGWScrFBJxX0-24" value="end" style="ellipse;whiteSpace=wrap;html=1;aspect=fixed;" parent="1" vertex="1">
          <mxGeometry x="339" y="710" width="120" height="60" as="geometry" />
        </mxCell>
      </root>
    </mxGraphModel>
  </diagram>
</mxfile>
